<svg xmlns="http://www.w3.org/2000/svg" width="16.247" height="20" viewBox="0 0 16.247 20" fill="none">
  <path d="M 13.569 10.625 C 13.597 13.652 16.218 14.659 16.247 14.672 C 16.225 14.743 15.828 16.107 14.866 17.517 C 14.035 18.735 13.172 19.949 11.812 19.974 C 10.476 19.999 10.046 19.18 8.519 19.18 C 6.992 19.18 6.514 19.949 5.25 19.999 C 3.937 20.048 2.938 18.681 2.099 17.467 C 0.386 14.984 -0.924 10.451 0.834 7.391 C 1.708 5.871 3.269 4.909 4.963 4.884 C 6.252 4.859 7.468 5.753 8.256 5.753 C 9.044 5.753 10.522 4.678 12.076 4.836 C 12.727 4.863 14.553 5.099 15.726 6.82 C 15.631 6.879 13.546 8.095 13.569 10.625 Z M 11.058 3.193 C 11.755 2.348 12.224 1.171 12.096 0 C 11.092 0.04 9.877 0.671 9.157 1.516 C 8.511 2.264 7.946 3.462 8.098 4.609 C 9.218 4.696 10.361 4.039 11.058 3.193 Z" fill="currentColor" fill-rule="nonzero"></path>
</svg>