<svg xmlns="http://www.w3.org/2000/svg" width="6.444" height="9.666" viewBox="0 0 6.444 9.666" fill="none">
  <path d="M 0.012 4.141 C 0.012 4.141 0.012 4.207 0.012 4.24 C 0.023 4.421 0.047 4.619 0.07 4.8 C 0.082 4.982 0.105 5.179 0.129 5.361 C 0.129 5.361 0.129 5.394 0.129 5.41 C 0.129 5.443 0.14 5.476 0.152 5.509 C 0.234 5.872 0.398 6.35 0.468 6.581 C 0.503 6.713 0.55 6.829 0.608 6.96 C 0.62 6.993 0.632 7.026 0.643 7.043 C 0.643 7.043 0.655 7.076 0.667 7.076 C 0.749 7.224 0.819 7.356 0.901 7.505 C 0.971 7.653 1.053 7.785 1.134 7.933 C 1.17 7.983 1.205 8.032 1.24 8.082 C 1.322 8.197 1.392 8.329 1.474 8.445 C 1.743 8.84 2.047 9.137 2.409 9.302 C 2.76 9.566 3.134 9.681 3.532 9.665 C 3.93 9.681 4.316 9.566 4.655 9.302 C 5.017 9.137 5.333 8.857 5.59 8.445 L 6.047 7.604 C 6.316 6.96 6.444 6.268 6.444 5.526 L 6.339 4.437 C 6.199 3.745 5.953 3.135 5.59 2.623 C 5.52 2.541 5.474 2.442 5.415 2.343 C 5.357 2.261 5.298 2.195 5.24 2.096 L 5.696 2.937 C 5.614 2.788 5.555 2.607 5.497 2.426 L 5.789 3.415 C 5.766 3.333 5.743 3.25 5.731 3.151 L 5.836 4.24 C 5.836 4.24 5.836 4.174 5.836 4.124 C 5.848 3.563 5.766 3.019 5.579 2.541 C 5.462 2.03 5.263 1.585 4.971 1.222 C 4.702 0.826 4.398 0.529 4.035 0.364 C 3.684 0.1 3.31 -0.015 2.912 0.002 L 2.14 0.15 C 1.649 0.348 1.216 0.694 0.854 1.205 L 0.398 2.046 C 0.129 2.689 0 3.382 0 4.124 L 0.012 4.141 Z" fill="currentColor" fill-rule="nonzero"></path>
</svg>