<svg xmlns="http://www.w3.org/2000/svg" width="7.123" height="9.423" viewBox="0 0 7.123 9.423" fill="none">
  <path d="M 0.478 5.246 C 0.539 5.359 0.601 5.472 0.662 5.571 C 0.883 5.909 1.103 6.234 1.324 6.558 L 0.846 5.839 C 0.956 6.008 1.03 6.205 1.103 6.403 L 0.797 5.557 C 0.846 5.683 0.858 5.825 0.895 5.951 C 1.018 6.346 1.189 6.727 1.336 7.108 L 1.03 6.262 C 1.03 6.262 1.054 6.346 1.054 6.389 L 0.944 5.458 C 0.981 5.853 0.993 6.234 1.079 6.643 C 1.079 6.657 1.079 6.671 1.079 6.699 C 1.079 6.699 1.079 6.727 1.079 6.741 L 1.385 7.588 C 1.52 7.884 1.692 8.152 1.913 8.378 C 2.195 8.716 2.513 8.97 2.893 9.111 C 3.261 9.337 3.653 9.435 4.07 9.421 C 4.487 9.435 4.892 9.337 5.247 9.111 C 5.627 8.97 5.958 8.73 6.228 8.378 L 6.706 7.658 C 6.988 7.108 7.123 6.516 7.123 5.881 L 7.013 4.95 C 6.866 4.358 6.608 3.836 6.228 3.398 C 6.228 3.398 6.204 3.384 6.204 3.37 L 6.682 4.09 C 6.682 4.09 6.669 4.061 6.657 4.047 L 6.964 4.894 C 6.964 4.894 6.951 4.823 6.939 4.795 L 7.049 5.726 C 7.049 5.726 7.049 5.613 7.037 5.557 C 7.025 5.387 7 5.204 6.976 5.035 C 6.976 4.964 6.951 4.668 6.915 4.499 C 6.817 4.061 6.608 3.709 6.461 3.3 L 6.768 4.146 C 6.731 4.033 6.718 3.906 6.682 3.793 C 6.584 3.469 6.449 3.13 6.326 2.82 C 6.302 2.764 6.277 2.707 6.253 2.651 C 6.204 2.538 6.155 2.439 6.093 2.341 C 5.885 2.016 5.652 1.692 5.431 1.367 L 5.909 2.087 C 5.836 1.974 5.774 1.861 5.713 1.748 C 5.517 1.339 5.26 1.001 4.929 0.761 C 4.634 0.45 4.291 0.239 3.886 0.126 C 3.482 -0.015 3.077 -0.043 2.66 0.07 C 2.256 0.098 1.876 0.225 1.52 0.493 L 0.895 1.043 C 0.515 1.48 0.257 2.002 0.11 2.594 L 0 3.525 C 0 4.16 0.147 4.753 0.417 5.303 L 0.478 5.303 L 0.478 5.246 Z" fill="currentColor" fill-rule="nonzero"></path>
</svg>