<svg xmlns="http://www.w3.org/2000/svg" width="160" height="131.212" viewBox="0 0 160 131.212" fill="none">
  <defs>
    <linearGradient id="body" x1="0" y1="0" x2="0" y2="1" gradientUnits="objectBoundingBox">
      <stop offset="0" stop-color="rgba(255,114,97,0.34)"></stop>
      <stop offset="0.13" stop-color="rgba(255,126,51,0.34)"></stop>
      <stop offset="1" stop-color="rgb(255,74,52)"></stop>
    </linearGradient>
    <linearGradient id="stem" x1="0" y1="0" x2="0" y2="1" gradientUnits="objectBoundingBox">
      <stop offset="0" stop-color="rgb(126,70,55)"></stop>
      <stop offset="1" stop-color="rgb(53,32,27)"></stop>
    </linearGradient>
  </defs>
  <g transform="matrix(-1,0,0,-1,160,131.212)">
    <path d="M 0.33 60.925 C 0.33 83.898 23.427 113.497 68.74 113.497 C 107.418 113.497 148.881 84.703 153.935 56.416 C 162.597 7.929 122.906 -6.131 100.195 2.295 C 82.653 8.803 61.224 34.599 52.455 34.599 C 48.521 34.599 42.022 28.13 36.835 22.426 C 32.138 17.271 25.228 17.055 18.632 20.427 C 13.68 22.975 -2.503 34.599 0.33 60.925 Z" fill="url(#body)" fill-rule="nonzero"></path>
    <g transform="matrix(-0.948,0.319,-0.319,-0.948,151.819,113.513)">
      <path d="M 4.919 2.474 C 17.724 0.34 30.633 -1.378 43.46 1.581 C 48.329 2.922 46.847 10.208 41.844 9.562 C 39.983 9.338 38.079 9.242 36.149 9.248 C 35.094 17.266 34.923 25.626 35.755 33.627 C 36.241 38.261 29.222 39.346 28.172 34.811 C 26.423 26.626 25.642 18.459 25.715 10.148 C 19.599 11.108 13.496 12.709 7.874 14.319 C -0.324 16.564 -3.402 4.351 4.919 2.474 Z" fill="url(#stem)" fill-rule="nonzero"></path>
    </g>
  </g>
  <g transform="matrix(0.984,0.177,-0.133,0.991,78.786,62.942)">
    <path d="M 0.478 5.246 C 0.539 5.359 0.601 5.472 0.662 5.571 C 0.883 5.909 1.103 6.234 1.324 6.558 L 0.846 5.839 C 0.956 6.008 1.03 6.205 1.103 6.403 L 0.797 5.557 C 0.846 5.683 0.858 5.825 0.895 5.951 C 1.018 6.346 1.189 6.727 1.336 7.108 L 1.03 6.262 C 1.03 6.262 1.054 6.346 1.054 6.389 L 0.944 5.458 C 0.981 5.853 0.993 6.234 1.079 6.643 C 1.079 6.657 1.079 6.671 1.079 6.699 C 1.079 6.699 1.079 6.727 1.079 6.741 L 1.385 7.588 C 1.52 7.884 1.692 8.152 1.913 8.378 C 2.195 8.716 2.513 8.97 2.893 9.111 C 3.261 9.337 3.653 9.435 4.07 9.421 C 4.487 9.435 4.892 9.337 5.247 9.111 C 5.627 8.97 5.958 8.73 6.228 8.378 L 6.706 7.658 C 6.988 7.108 7.123 6.516 7.123 5.881 L 7.013 4.95 C 6.866 4.358 6.608 3.836 6.228 3.398 C 6.228 3.398 6.204 3.384 6.204 3.37 L 6.682 4.09 C 6.682 4.09 6.669 4.061 6.657 4.047 L 6.964 4.894 C 6.964 4.894 6.951 4.823 6.939 4.795 L 7.049 5.726 C 7.049 5.726 7.049 5.613 7.037 5.557 C 7.025 5.387 7 5.204 6.976 5.035 C 6.976 4.964 6.951 4.668 6.915 4.499 C 6.817 4.061 6.608 3.709 6.461 3.3 L 6.768 4.146 C 6.731 4.033 6.718 3.906 6.682 3.793 C 6.584 3.469 6.449 3.13 6.326 2.82 C 6.302 2.764 6.277 2.707 6.253 2.651 C 6.204 2.538 6.155 2.439 6.093 2.341 C 5.885 2.016 5.652 1.692 5.431 1.367 L 5.909 2.087 C 5.836 1.974 5.774 1.861 5.713 1.748 C 5.517 1.339 5.26 1.001 4.929 0.761 C 4.634 0.45 4.291 0.239 3.886 0.126 C 3.482 -0.015 3.077 -0.043 2.66 0.07 C 2.256 0.098 1.876 0.225 1.52 0.493 L 0.895 1.043 C 0.515 1.48 0.257 2.002 0.11 2.594 L 0 3.525 C 0 4.16 0.147 4.753 0.417 5.303 L 0.478 5.303 L 0.478 5.246 Z" fill="rgb(18,18,18)" fill-rule="nonzero"></path>
  </g>
  <g transform="translate(92.146,60.652)">
    <path d="M 0.012 4.141 C 0.012 4.141 0.012 4.207 0.012 4.24 C 0.023 4.421 0.047 4.619 0.07 4.8 C 0.082 4.982 0.105 5.179 0.129 5.361 C 0.129 5.361 0.129 5.394 0.129 5.41 C 0.129 5.443 0.14 5.476 0.152 5.509 C 0.234 5.872 0.398 6.35 0.468 6.581 C 0.503 6.713 0.55 6.829 0.608 6.96 C 0.62 6.993 0.632 7.026 0.643 7.043 C 0.643 7.043 0.655 7.076 0.667 7.076 C 0.749 7.224 0.819 7.356 0.901 7.505 C 0.971 7.653 1.053 7.785 1.134 7.933 C 1.17 7.983 1.205 8.032 1.24 8.082 C 1.322 8.197 1.392 8.329 1.474 8.445 C 1.743 8.84 2.047 9.137 2.409 9.302 C 2.76 9.566 3.134 9.681 3.532 9.665 C 3.93 9.681 4.316 9.566 4.655 9.302 C 5.017 9.137 5.333 8.857 5.59 8.445 L 6.047 7.604 C 6.316 6.96 6.444 6.268 6.444 5.526 L 6.339 4.437 C 6.199 3.745 5.953 3.135 5.59 2.623 C 5.52 2.541 5.474 2.442 5.415 2.343 C 5.357 2.261 5.298 2.195 5.24 2.096 L 5.696 2.937 C 5.614 2.788 5.555 2.607 5.497 2.426 L 5.789 3.415 C 5.766 3.333 5.743 3.25 5.731 3.151 L 5.836 4.24 C 5.836 4.24 5.836 4.174 5.836 4.124 C 5.848 3.563 5.766 3.019 5.579 2.541 C 5.462 2.03 5.263 1.585 4.971 1.222 C 4.702 0.826 4.398 0.529 4.035 0.364 C 3.684 0.1 3.31 -0.015 2.912 0.002 L 2.14 0.15 C 1.649 0.348 1.216 0.694 0.854 1.205 L 0.398 2.046 C 0.129 2.689 0 3.382 0 4.124 L 0.012 4.141 Z" fill="rgb(18,18,18)" fill-rule="nonzero"></path>
  </g>
</svg>