<svg xmlns="http://www.w3.org/2000/svg" width="46.444" height="37.710" viewBox="0 0 46.444 37.710" fill="none">
  <path d="M 4.919 2.474 C 17.724 0.34 30.633 -1.378 43.46 1.581 C 48.329 2.922 46.847 10.208 41.844 9.562 C 39.982 9.338 38.078 9.242 36.148 9.248 C 35.093 17.266 34.923 25.627 35.755 33.627 C 36.241 38.261 29.222 39.346 28.172 34.811 C 26.423 26.626 25.642 18.459 25.715 10.148 C 19.599 11.108 13.496 12.709 7.874 14.319 C -0.324 16.564 -3.402 4.351 4.919 2.474 Z" fill="currentColor" fill-rule="nonzero"></path>
  <path d="M 4.919 2.474 L 4.856 2.1 C 4.849 2.101 4.842 2.102 4.835 2.104 L 4.919 2.474 Z M 43.46 1.581 L 43.56 1.216 C 43.555 1.214 43.55 1.213 43.545 1.212 L 43.46 1.581 Z M 41.844 9.562 L 41.892 9.186 L 41.889 9.185 L 41.844 9.562 Z M 36.148 9.248 L 36.147 8.869 C 35.957 8.87 35.797 9.011 35.772 9.199 L 36.148 9.248 Z M 35.755 33.627 L 35.378 33.666 L 35.378 33.667 L 35.755 33.627 Z M 28.172 34.811 L 27.801 34.89 L 27.802 34.896 L 28.172 34.811 Z M 25.715 10.148 L 26.094 10.151 C 26.095 10.04 26.047 9.933 25.962 9.861 C 25.878 9.788 25.766 9.756 25.656 9.773 L 25.715 10.148 Z M 7.874 14.319 L 7.974 14.684 L 7.978 14.683 L 7.874 14.319 Z M 4.919 2.474 L 4.981 2.848 C 17.787 0.714 30.629 -0.99 43.375 1.951 L 43.46 1.581 L 43.545 1.212 C 30.638 -1.766 17.661 -0.034 4.856 2.1 L 4.919 2.474 Z M 43.46 1.581 L 43.359 1.947 C 47.763 3.159 46.44 9.773 41.892 9.186 L 41.844 9.562 L 41.795 9.938 C 47.254 10.643 48.895 2.685 43.56 1.216 L 43.46 1.581 Z M 41.844 9.562 L 41.889 9.185 C 40.01 8.959 38.09 8.863 36.147 8.869 L 36.148 9.248 L 36.15 9.627 C 38.066 9.621 39.954 9.716 41.798 9.938 L 41.844 9.562 Z M 36.148 9.248 L 35.772 9.199 C 34.714 17.244 34.543 25.634 35.378 33.666 L 35.755 33.627 L 36.132 33.588 C 35.304 25.619 35.473 17.287 36.524 9.298 L 36.148 9.248 Z M 35.755 33.627 L 35.378 33.667 C 35.488 34.721 35.174 35.552 34.639 36.153 C 34.1 36.761 33.319 37.153 32.481 37.283 C 30.804 37.543 29.011 36.755 28.541 34.725 L 28.172 34.811 L 27.802 34.896 C 28.383 37.402 30.625 38.339 32.598 38.032 C 33.586 37.879 34.534 37.413 35.206 36.657 C 35.884 35.893 36.264 34.85 36.132 33.588 L 35.755 33.627 Z M 28.172 34.811 L 28.542 34.732 C 26.8 26.575 26.022 18.436 26.094 10.151 L 25.715 10.148 L 25.336 10.144 C 25.263 18.482 26.046 26.677 27.801 34.89 L 28.172 34.811 Z M 25.715 10.148 L 25.656 9.773 C 19.517 10.737 13.396 12.343 7.77 13.954 L 7.874 14.319 L 7.978 14.683 C 13.597 13.075 19.681 11.479 25.773 10.522 L 25.715 10.148 Z M 7.874 14.319 L 7.774 13.953 C 5.822 14.487 4.206 14.157 2.991 13.362 C 1.769 12.562 0.927 11.273 0.57 9.85 C 0.213 8.427 0.348 6.895 1.05 5.615 C 1.747 4.343 3.02 3.291 5.002 2.844 L 4.919 2.474 L 4.835 2.104 C 2.657 2.596 1.194 3.774 0.385 5.25 C -0.42 6.718 -0.563 8.45 -0.166 10.034 C 0.232 11.619 1.176 13.079 2.576 13.996 C 3.984 14.918 5.827 15.272 7.974 14.684 L 7.874 14.319 Z" fill="currentColor" fill-rule="nonzero"></path>
</svg>