<svg xmlns="http://www.w3.org/2000/svg" width="46.444" height="37.710" viewBox="0 0 46.444 37.710" fill="none"><defs><linearGradient id="stemGrad" x1="0" y1="0" x2="0" y2="1" gradientUnits="objectBoundingBox"><stop offset="0" stop-color="rgb(126,70,55)"></stop><stop offset="1" stop-color="rgb(53,32,27)"></stop></linearGradient></defs>
  <path d="M 4.919 2.474 C 17.724 0.34 30.633 -1.378 43.46 1.581 C 48.329 2.922 46.847 10.208 41.844 9.562 C 39.983 9.338 38.079 9.242 36.149 9.248 C 35.094 17.266 34.923 25.626 35.755 33.627 C 36.241 38.261 29.222 39.346 28.172 34.811 C 26.423 26.626 25.642 18.459 25.715 10.148 C 19.599 11.108 13.496 12.709 7.874 14.319 C -0.324 16.564 -3.402 4.351 4.919 2.474 Z" fill="url(#stemGrad)" fill-rule="nonzero"></path>
  <path d="M 4.919 2.474 L 4.763 1.539 L 4.736 1.543 L 4.71 1.549 L 4.919 2.474 Z M 43.46 1.581 L 43.711 0.668 L 43.692 0.662 L 43.673 0.658 L 43.46 1.581 Z M 41.844 9.562 L 41.965 8.622 L 41.957 8.621 L 41.844 9.562 Z M 36.149 9.248 L 36.146 8.301 L 35.318 8.303 L 35.21 9.125 L 36.149 9.248 Z M 35.755 33.627 L 34.812 33.725 L 34.812 33.726 L 35.755 33.627 Z M 28.172 34.811 L 27.245 35.009 L 27.247 35.017 L 27.248 35.025 L 28.172 34.811 Z M 25.715 10.148 L 26.662 10.156 L 26.672 9.038 L 25.568 9.211 L 25.715 10.148 Z M 7.874 14.319 L 8.124 15.233 L 8.135 15.23 L 7.874 14.319 Z M 4.919 2.474 L 5.075 3.409 C 17.882 1.274 30.622 -0.408 43.247 2.505 L 43.46 1.581 L 43.673 0.658 C 30.644 -2.348 17.566 -0.595 4.763 1.539 L 4.919 2.474 Z M 43.46 1.581 L 43.208 2.495 C 46.913 3.515 45.829 9.121 41.965 8.622 L 41.844 9.562 L 41.722 10.502 C 47.864 11.295 49.744 2.329 43.711 0.668 L 43.46 1.581 Z M 41.844 9.562 L 41.957 8.621 C 40.052 8.392 38.109 8.294 36.146 8.301 L 36.149 9.248 L 36.152 10.196 C 38.049 10.19 39.913 10.284 41.73 10.503 L 41.844 9.562 Z M 36.149 9.248 L 35.21 9.125 C 34.146 17.211 33.973 25.646 34.812 33.725 L 35.755 33.627 L 36.697 33.529 C 35.874 25.607 36.043 17.32 37.089 9.372 L 36.149 9.248 Z M 35.755 33.627 L 34.812 33.726 C 34.907 34.624 34.64 35.296 34.214 35.776 C 33.773 36.272 33.119 36.608 32.394 36.721 C 30.939 36.947 29.483 36.271 29.095 34.597 L 28.172 34.811 L 27.248 35.025 C 27.911 37.886 30.49 38.935 32.685 38.594 C 33.786 38.423 34.86 37.903 35.632 37.034 C 36.417 36.149 36.846 34.947 36.697 33.528 L 35.755 33.627 Z M 28.172 34.811 L 29.098 34.613 C 27.365 26.499 26.59 18.402 26.662 10.156 L 25.715 10.148 L 24.767 10.139 C 24.694 18.517 25.481 26.753 27.245 35.009 L 28.172 34.811 Z M 25.715 10.148 L 25.568 9.211 C 19.393 10.181 13.246 11.795 7.613 13.407 L 7.874 14.319 L 8.135 15.23 C 13.747 13.623 19.805 12.035 25.862 11.084 L 25.715 10.148 Z M 7.874 14.319 L 7.624 13.404 C 5.818 13.899 4.372 13.586 3.303 12.886 C 2.214 12.174 1.448 11.013 1.121 9.712 C 0.795 8.41 0.924 7.027 1.548 5.888 C 2.162 4.769 3.293 3.812 5.127 3.398 L 4.919 2.474 L 4.71 1.549 C 2.384 2.074 0.78 3.348 -0.113 4.977 C -0.996 6.585 -1.145 8.467 -0.717 10.173 C -0.289 11.878 0.73 13.467 2.265 14.472 C 3.818 15.489 5.831 15.861 8.124 15.233 L 7.874 14.319 Z" fill="url(#stemGrad)" fill-rule="nonzero"></path>
</svg>